<svg width="24" height="21" viewBox="0 0 24 21" fill="none" xmlns="http://www.w3.org/2000/svg">
<path d="M23.486 10.5821C22.5695 10.3971 21.8206 9.86272 21.1001 9.29004C20.7398 9.00315 20.3697 8.6659 19.9657 8.4031C19.9799 6.2613 19.589 4.14688 18.8247 2.34672C18.5236 1.63826 17.2796 2.16057 17.5775 2.87231C17.7888 3.37929 17.9574 3.90927 18.0878 4.45347C16.7343 2.27773 14.7962 0.577215 12.1737 0.114035C9.57969 -0.34367 6.8915 0.621015 4.85701 2.20984C0.592029 5.53861 -1.83118 12.7195 1.69578 17.3995C4.60954 21.2648 10.3363 21.7499 14.379 19.4877C16.9095 18.0718 18.5323 15.5873 19.3448 12.7798C20.7453 12.6845 22.2082 12.5082 23.486 11.9706C24.0675 11.7242 24.2679 10.7398 23.486 10.5821ZM17.1296 13.7302C16.0894 16.137 14.2279 18.0029 11.7171 18.8252C9.53261 19.5402 7.06012 19.399 5.02016 18.3204C2.82142 17.1575 1.58628 14.9478 1.44502 12.4995C1.19756 8.20162 3.6569 3.87532 7.51345 1.96566C9.18769 1.13675 11.1357 0.919946 12.9446 1.38313C15.1893 1.958 16.9851 3.65194 18.1874 5.56927C18.2213 5.62292 18.264 5.65468 18.31 5.67001C18.4392 6.65221 18.4546 7.66508 18.3746 8.67137H18.4327C18.46 8.81043 18.5378 8.94402 18.6823 9.04148C19.5857 9.64919 20.3588 10.4737 21.2435 11.1066C20.3982 11.2479 19.5331 11.284 18.6834 11.2643C18.1896 11.2534 17.941 11.6399 17.9312 12.0308C17.8677 12.0341 17.8052 12.0385 17.7417 12.0406C17.5665 12.6243 17.3629 13.1915 17.1296 13.7302Z" fill="#212936"/>
<path d="M8.57777 17.2298C8.60734 17.3995 8.79787 17.5243 8.96102 17.5211C10.0593 17.5003 11.0842 17.1937 12.131 16.8871C12.2964 16.8389 12.419 16.6867 12.4168 16.5115C12.3818 13.7904 11.7149 11.1373 11.0295 8.51916C11.0076 8.43594 10.8674 8.45127 10.8762 8.53996C10.8937 8.71845 10.9123 8.89584 10.9309 9.07432C10.84 8.96154 10.6977 8.8816 10.494 8.87284C9.7746 8.84109 9.07052 9.00314 8.34783 8.92869C8.1573 8.90898 7.95035 9.11593 7.97006 9.30646C8.2449 11.9476 8.12226 14.6007 8.57777 17.2298ZM10.3385 10.0248C10.6681 10.1365 10.9046 9.95797 11.0032 9.71051C11.2572 11.8764 11.5967 14.0335 11.6328 16.2169C10.8586 16.4359 10.0932 16.6396 9.29171 16.7064C8.89423 14.4321 8.76502 12.0593 8.73217 9.74774C9.27309 9.81891 9.82059 9.84957 10.3385 10.0248Z" fill="#212936"/>
<path d="M8.36207 7.08692C8.38507 7.21722 8.5307 7.31249 8.65553 7.3103C9.28734 7.30044 9.90053 7.20189 10.5104 7.08254C10.782 7.41323 11.4521 7.40118 11.5375 6.89092C11.5386 6.88435 11.5386 6.87778 11.5397 6.8723C11.6733 6.84493 11.808 6.81865 11.9427 6.79456C12.2263 6.742 12.1628 6.25363 11.8748 6.28867C11.7784 6.30072 11.681 6.31386 11.5846 6.32809C11.5934 5.497 11.37 4.61006 11.2178 3.82604C11.151 3.48112 10.7229 3.44389 10.4973 3.63552C9.92243 4.12169 9.40998 4.35383 8.65663 4.41077C8.5307 4.42062 8.39821 4.49399 8.37083 4.62867C8.20111 5.44663 8.21863 6.26568 8.36207 7.08692ZM10.332 4.70861C10.3385 5.30866 10.4064 5.912 10.3998 6.51315C9.90491 6.59199 9.40779 6.66206 8.90847 6.68944C8.82416 6.13428 8.80335 5.56051 8.89752 5.00644C9.42202 5.00425 9.8852 4.91008 10.332 4.70861Z" fill="#212936"/>
</svg>
