<?xml version="1.0" encoding="utf-8"?>
<svg version="1.1" xmlns="http://www.w3.org/2000/svg" xmlns:xlink="http://www.w3.org/1999/xlink" x="0px" y="0px" viewBox="0 0 1000 1000" enable-background="new 0 0 1000 1000" xml:space="preserve">
<g><g transform="translate(0.000000,511.000000) scale(0.100000,-0.100000)"><path d="M4402.7,4982.4c-518.4-67.4-1054.9-225.5-1524.1-451C1870.3,4046.7,1064.2,3240.6,579.5,2232.3C247.7,1542.9,100,874.2,100,86.2c2.6-2467.6,1853.3-4538.5,4328.6-4847c119.2-13,386.2-25.9,591-25.9c2034.7,0,3859.4,1272.6,4577.4,3193.3c383.6,1031.6,404.3,2205.8,54.4,3255.5c-588.4,1762.5-2133.2,3048.2-3981.2,3310C5379.8,5013.5,4685.2,5018.7,4402.7,4982.4z M4337.9,4145.2l466.6-342.1l7.8-845l5.2-845l-808.7-591c-445.8-324-829.4-593.6-850.2-598.8c-20.7-5.2-388.8,106.3-813.9,243.7l-775,254l-194.4,578l-191.8,575.4l152.9,212.5c204.8,287.7,718,798.3,1018.6,1010.9c134.8,95.9,386.2,246.2,557.3,337c311,160.7,808.7,355.1,907.2,355.1C3848,4490,4081.3,4334.4,4337.9,4145.2z M6478.8,4399.2c896.8-311,1721.1-935.7,2247.2-1702.9l80.4-116.6L8612,1999.1l-194.4-580.6l-777.6-254c-427.7-140-793.2-246.2-811.3-241.1c-18.1,7.8-394,277.3-839.8,601.3l-808.7,588.4l5.2,845l7.8,845l466.6,342.1c256.6,189.2,484.7,344.7,510.6,344.7C6193.7,4492.6,6331.1,4451.1,6478.8,4399.2z M2266.9,806.8l813.9-264.4L3210.4,138c70-220.3,210-648,308.4-951.3l176.3-549.5l-464-642.8c-256.6-352.5-484.7-663.5-505.4-686.9c-38.9-41.5-103.7-46.6-653.2-46.6h-611.7L1300.1-2511C792.1-1800.7,504.4-940.2,470.6-56.4l-13,414.7L945,716c269.6,194.4,492.5,355.1,497.7,355.1C1447.8,1071.1,1818.5,951.9,2266.9,806.8z M9042.3,695.3L9540,332.4l-15.6-401.8c-23.3-689.5-178.8-1270.1-497.6-1892.1c-93.3-178.9-233.3-417.3-316.2-531.4l-147.7-207.4h-648h-645.4l-484.7,668.7L6300-1362.7l165.9,510.6c90.7,279.9,230.7,710.2,308.5,953.8l142.6,440.6l798.3,261.8c438.1,142.6,803.5,259.2,811.3,256.6C8536.9,1060.8,8767.6,894.9,9042.3,695.3z M6484-2244c267-368.1,484.7-681.7,484.7-697.2c0-57-368.1-1161.2-396.6-1189.7c-46.7-44.1-414.7-152.9-746.5-220.3c-248.8-49.2-378.4-57-826.9-59.6c-453.6,0-575.4,10.4-826.8,59.6c-313.6,64.8-699.8,176.3-741.3,215.1c-13,15.6-114,290.3-222.9,611.7l-197,585.8l495.1,684.3l495.1,681.7h997.9h997.9L6484-2244z"/></g></g>
</svg>