<svg width="260" height="115" viewBox="0 0 260 115" fill="none" xmlns="http://www.w3.org/2000/svg">
<path d="M167.99 7.01117C166.885 5.16543 164.715 4.32711 162.611 3.98651C159.555 3.49239 156.367 3.50439 153.277 3.37846C149.712 3.23334 146.146 3.14339 142.578 3.09782C128.511 2.91912 114.446 3.45761 100.406 4.25755C93.2729 4.66412 86.143 5.13545 79.0143 5.61757C76.4837 5.78908 73.2 5.51803 71.1648 7.24144C69.4605 8.68421 69.018 10.9641 68.9041 13.0305C68.7122 16.4917 68.9616 20.0069 69.0228 23.4705C69.09 27.2807 69.1571 31.091 69.2303 34.9012C69.301 38.6082 69.373 42.3153 69.4462 46.0224C69.5241 49.9321 69.4414 53.8743 69.9031 57.7613C69.975 58.3729 70.8505 58.3837 70.9117 57.7613C71.5234 51.5428 71.1336 45.1601 71.1252 38.9165C71.1168 32.6345 71.1024 26.3537 71.0868 20.0717C71.0796 17.3636 70.7774 14.4973 71.2091 11.8096C71.3674 10.819 71.6697 9.72522 72.4144 8.97925C73.5706 7.82191 75.5291 7.93105 77.0726 7.82671C83.6604 7.38056 90.2494 6.93682 96.8408 6.54344C109.909 5.76509 122.997 5.18342 136.093 5.16064C142.58 5.14864 149.068 5.27457 155.547 5.58279C158.279 5.71232 161.444 5.53242 164.031 6.51946C167.106 7.69238 166.608 10.8945 166.608 13.5078C166.608 27.6177 166.608 41.7277 166.608 55.8376C166.608 57.2132 168.857 57.2156 168.856 55.8376C168.849 42.3453 168.842 28.8542 168.834 15.362C168.833 12.7751 169.404 9.37382 167.99 7.01117Z" fill="#212936"/>
<path d="M259.681 60.2031C247.631 60.4345 235.587 60.8579 223.54 61.1865C218.084 61.3352 212.63 61.4839 207.174 61.6326C204.447 61.707 201.718 61.7813 198.991 61.8557C196.979 61.9109 194.876 61.8005 192.858 62.0188C192.835 62.1016 192.81 62.1831 192.786 62.2659C190.478 61.8521 188.129 61.5967 185.838 61.3076C181.617 60.7739 177.372 60.4381 173.122 60.2342C172.182 60.1887 171.241 60.1515 170.301 60.1215C170.3 60.0411 170.284 59.9632 170.263 59.8864C170.29 59.9068 170.314 59.932 170.344 59.9488C170.401 59.9824 170.462 60.0088 170.525 60.0268C170.578 60.0471 170.56 60.0435 170.473 60.0148C170.775 60.215 171.225 60.1323 171.472 59.8864C171.69 59.6682 171.775 59.2988 171.66 59.0049C171.693 58.8946 171.716 58.7759 171.716 58.6427C171.709 43.6514 171.701 28.6612 171.693 13.6698C171.692 10.7914 172.295 7.01237 170.801 4.38708C169.634 2.33626 167.341 1.40439 165.119 1.02661C161.889 0.478524 158.523 0.490517 155.257 0.351397C151.491 0.190689 147.722 0.0899466 143.952 0.0395755C129.089 -0.15951 114.228 0.440146 99.3953 1.32884C91.8576 1.78098 84.3248 2.30508 76.7931 2.83997C74.1198 3.02946 70.649 2.72963 68.4986 4.64493C66.6985 6.24841 66.2307 8.78136 66.1096 11.078C65.9069 14.923 66.1708 18.8292 66.2355 22.6778C66.3063 26.9114 66.3783 31.1449 66.4538 35.3785C66.5282 39.4981 66.6037 43.6166 66.6817 47.7362C66.762 52.0034 66.6829 56.3065 67.1422 60.5521C66.6637 60.0975 65.9885 60.4009 65.7114 60.913C65.7018 60.8855 65.6911 60.8591 65.6815 60.8315C64.1415 60.7679 62.5788 60.8183 61.0665 60.7775C58.3369 60.7032 55.606 60.6288 52.8764 60.5545C47.4159 60.4057 41.9555 60.257 36.495 60.1083C24.4371 59.7797 12.3805 59.3563 0.320174 59.1249C-0.107981 59.1165 -0.103183 59.7653 0.320174 59.7869C19.8774 60.7991 39.4549 61.4983 59.0193 62.3534C60.0531 62.399 61.0893 62.435 62.1243 62.4733C62.1615 62.5009 62.2071 62.5189 62.267 62.5177C62.4421 62.5141 62.616 62.5057 62.7899 62.4985C63.9784 62.5441 65.167 62.5957 66.3519 62.6724C66.3363 62.6329 66.3231 62.5921 66.3087 62.5525C66.3951 62.658 66.479 62.7648 66.5618 62.8727C66.4598 62.8499 66.3567 62.8271 66.2487 62.8104C66.2032 62.8032 66.1552 62.7996 66.1096 62.7924C66.3747 63.4784 66.6049 64.1776 66.816 64.8864C67.1938 65.0891 67.5332 65.3937 67.839 65.8662C68.4891 66.8688 68.9964 68.0046 69.4725 69.096C71.1899 73.0345 72.4696 77.7226 72.1302 82.0521C71.7284 87.1648 67.0847 89.266 63.0993 91.4535C59.0745 93.6615 55.0112 95.7926 50.9107 97.8566C46.2262 100.216 41.5045 102.506 36.7349 104.69C34.2499 105.828 31.7469 106.931 29.238 108.017C26.7434 109.098 24.0857 109.951 21.6991 111.237C20.8416 111.7 21.4245 113.107 22.3647 112.817C24.719 112.091 26.9449 110.887 29.1996 109.888C31.5958 108.826 33.9837 107.743 36.3607 106.639C41.02 104.477 45.6626 102.28 50.2583 99.9866C54.8541 97.6935 59.4151 95.3249 63.9437 92.9023C64.1631 92.7848 64.3874 92.6684 64.6117 92.5509C64.7148 92.4981 64.818 92.4442 64.9223 92.3902C65.0422 92.3278 65.1634 92.2667 65.2845 92.2043C65.5651 92.0604 65.847 91.9165 66.13 91.7701C66.1324 91.7689 66.1348 91.7677 66.1372 91.7665C66.6265 91.5135 67.117 91.2556 67.6004 90.987C67.6159 90.9786 67.6315 90.969 67.6471 90.9606C67.8594 90.8419 68.0693 90.7219 68.278 90.5984C68.3211 90.5732 68.3631 90.548 68.4051 90.5217C68.5946 90.4077 68.7829 90.2926 68.9676 90.1739C69.0084 90.1487 69.0479 90.1235 69.0887 90.0971C69.307 89.9556 69.5229 89.8105 69.7339 89.6605C69.9174 89.9448 70.2724 90.1787 70.6202 90.1487C74.8478 89.7949 79.1653 90.0119 83.3605 89.4831C83.4589 89.4711 83.5404 89.4279 83.604 89.3691C87.1671 89.4531 90.7639 89.3092 94.2731 89.3092C100.201 89.3104 106.129 89.3295 112.058 89.3056C123.686 89.2576 135.315 89.2072 146.943 89.1616L167.122 89.0825C167.202 89.0825 167.278 89.0729 167.348 89.0585C170.154 89.3499 173.129 89.0405 175.915 88.9925C179.297 88.935 182.702 88.9326 186.079 88.7263C186.452 88.7035 186.724 88.5344 186.9 88.3017C187.1 88.3173 187.3 88.3341 187.499 88.3473C189.443 91.2904 193.057 92.7668 196.114 94.4038C200.639 96.8264 205.195 99.1951 209.787 101.488C214.379 103.781 219.017 105.978 223.673 108.141C226.049 109.244 228.433 110.327 230.828 111.39C233.08 112.389 235.305 113.593 237.657 114.318C238.596 114.609 239.179 113.201 238.322 112.739C235.938 111.452 233.283 110.599 230.791 109.519C228.284 108.432 225.785 107.33 223.301 106.192C218.536 104.008 213.819 101.717 209.138 99.3582C205.041 97.2942 200.982 95.163 196.961 92.9551C192.979 90.7687 188.339 88.6663 187.938 83.5537C187.599 79.2241 188.877 74.536 190.593 70.5975C191.053 69.5433 191.544 68.4483 192.163 67.4709C192.48 66.4815 192.785 65.4884 193.068 64.4906C191.444 65.0363 190.621 66.4299 189.813 68.0082C188.841 69.9031 188.036 71.8927 187.42 73.9316C186.254 77.7886 185.23 82.5726 186.582 86.504C186.606 86.5747 186.636 86.6419 186.664 86.709C186.509 86.6107 186.315 86.5471 186.08 86.5447C185.634 86.5411 185.187 86.5483 184.741 86.5507C180.331 85.7892 175.806 85.3718 171.414 84.7602C165.669 83.9602 159.947 83.0212 154.201 82.2224C151.575 81.8578 148.839 81.7007 146.252 81.1215C144.707 80.7761 143.699 80.2627 144.317 78.4686C144.77 77.1541 145.589 75.8781 146.946 75.4019C148.246 74.9462 149.818 74.9654 151.174 74.8275L155.469 74.3873C156.791 74.2518 158.112 74.1091 159.433 73.964C160.51 73.8452 161.587 73.8284 162.587 73.4758C162.726 73.7397 162.868 74.0023 163.02 74.259C163.341 74.7975 164.296 74.602 164.253 73.9244C164.188 72.917 163.774 71.9191 163.244 71.07C163.159 70.9333 163.068 70.7894 162.973 70.6443C162.964 70.5171 162.925 70.3864 162.838 70.2569C160.187 66.3315 154.434 65.1262 150.199 66.9648C147.804 68.0046 146.454 70.011 144.683 71.8172C143.679 72.8414 142.451 73.5862 140.961 73.3163C140.377 73.2108 139.609 72.9649 139.673 72.2705C139.719 71.7764 140.806 70.6838 141.073 70.3097C142.07 68.9089 143.048 67.4937 144.027 66.0797C144.958 64.7341 145.795 62.9963 147.458 62.4925C149.068 62.0044 150.979 62.068 152.647 61.9469C154.211 61.8329 155.776 61.7346 157.341 61.6662C164.159 61.3676 171.004 61.4899 177.811 61.9672C181.157 62.2023 184.502 62.5165 187.835 62.9027C189.364 63.0802 190.89 63.3129 192.419 63.5216C192.38 63.6487 192.347 63.7782 192.308 63.9053C192.683 63.8226 193.088 63.7854 193.533 63.7554C196.027 63.5899 198.536 63.5371 201.033 63.4268C220.58 62.5717 240.139 61.8725 259.679 60.8603C260.104 60.8435 260.109 60.1947 259.681 60.2031ZM70.252 66.5066C69.939 65.8962 69.6236 65.3157 69.2614 64.8C69.1235 63.7638 68.7217 62.8283 68.1724 61.9492C69.5253 61.7598 70.8769 61.5595 72.2309 61.4024C75.5662 61.0162 78.9135 60.702 82.2631 60.4669C89.0764 59.9884 95.9281 59.8672 102.752 60.1659C104.32 60.2342 105.886 60.3326 107.451 60.4465C109.122 60.5688 111.033 60.5053 112.645 60.9922C114.31 61.4959 115.147 63.2337 116.08 64.5793C117.061 65.9933 118.039 67.4073 119.038 68.8093C119.305 69.1835 120.394 70.2761 120.438 70.7702C120.502 71.4646 119.733 71.7105 119.149 71.816C117.657 72.0858 116.429 71.3411 115.424 70.3169C113.652 68.5107 112.3 66.5042 109.902 65.4644C105.663 63.6259 99.9062 64.83 97.2521 68.7565C97.1646 68.8849 97.1262 69.0156 97.1166 69.1439C97.0219 69.289 96.9307 69.433 96.8456 69.5697C96.3155 70.4188 95.9005 71.4166 95.8358 72.424C95.7926 73.1017 96.7484 73.2959 97.0699 72.7586C97.2234 72.502 97.3637 72.2393 97.504 71.9755C98.5054 72.3281 99.5824 72.3449 100.661 72.4636C101.983 72.6087 103.305 72.7515 104.629 72.887L108.927 73.3271C110.284 73.4662 111.859 73.4459 113.16 73.9016C114.517 74.3765 115.338 75.6526 115.791 76.9682C116.41 78.7624 115.403 79.2745 113.854 79.6211C111.265 80.2004 108.526 80.3563 105.897 80.7221C100.146 81.5208 94.4194 82.4599 88.6687 83.2598C83.6028 83.965 78.357 84.41 73.3163 85.4246C73.3738 85.2843 73.435 85.1487 73.4854 85.0024C74.8382 81.0723 73.8128 76.287 72.6459 72.43C72.0294 70.3912 71.2235 68.4027 70.252 66.5066ZM106.716 66.7153C109.34 67.0367 111.215 68.5107 113.077 70.432C113.18 70.5387 113.286 70.6455 113.392 70.751C113.406 71.0724 113.293 71.3902 113.106 71.6757C112.119 71.3986 111.051 71.2655 110.004 71.1708C108.704 70.1142 107.979 68.013 106.716 66.7153ZM108.147 71.0173C107.847 70.9909 107.554 70.9621 107.272 70.9273C105.876 70.7546 104.48 70.5807 103.084 70.4116C102.933 69.692 102.731 68.9676 102.524 68.278C102.43 67.9614 102.34 67.6292 102.204 67.3294C103.012 66.9948 103.868 66.7717 104.777 66.6877C106.478 67.7167 107.027 69.5481 108.147 71.0173ZM101.736 70.2437C100.793 70.1178 99.7971 69.9151 98.822 69.8743C99.1063 69.5517 99.4049 69.2423 99.64 68.8933C100.148 68.4711 100.683 68.1065 101.243 67.7947C101.276 68.0633 101.333 68.3332 101.383 68.5922C101.488 69.1343 101.602 69.692 101.736 70.2437ZM158.711 70.0962C158.761 69.8359 158.819 69.5661 158.85 69.2986C159.409 69.6105 159.945 69.975 160.452 70.3972C160.687 70.7462 160.986 71.0556 161.27 71.3782C160.296 71.419 159.302 71.6217 158.359 71.7476C158.493 71.1959 158.607 70.6383 158.711 70.0962ZM155.32 68.1905C156.228 68.2744 157.083 68.4975 157.891 68.8321C157.755 69.1319 157.665 69.4641 157.572 69.7808C157.366 70.4704 157.163 71.1935 157.013 71.9143C155.618 72.0834 154.223 72.2573 152.828 72.43C152.548 72.4648 152.254 72.4936 151.955 72.52C153.073 71.052 153.621 69.2207 155.32 68.1905ZM147.028 71.9359C148.889 70.0146 150.761 68.5407 153.384 68.2193C152.122 69.5169 151.397 71.6181 150.099 72.6759C149.053 72.7706 147.985 72.9038 147 73.1808C146.813 72.8954 146.7 72.5764 146.713 72.2561C146.82 72.1494 146.925 72.0427 147.028 71.9359ZM144.054 63.0202C142.954 64.4522 141.935 65.955 140.886 67.4241C140.352 68.1701 139.825 68.9221 139.3 69.674C138.841 70.3312 137.977 71.1792 137.735 71.9359C137.151 73.7565 139.692 74.933 141.135 75.0074C142.984 75.1021 144.519 74.217 145.851 73.0621C145.852 73.0729 145.852 73.0825 145.853 73.0933C145.876 73.2444 145.918 73.3955 145.974 73.5406C145.486 73.7517 145.03 74.0131 144.625 74.3441C143.12 75.5758 141.462 78.4662 142.072 80.4666C142.665 82.4155 144.907 83.0188 146.681 83.2826C149.143 83.6496 151.611 83.9686 154.082 84.2684C142.758 84.8057 131.429 85.2315 120.094 85.5001C113.228 85.6632 106.365 85.7796 99.4961 85.8048C96.0624 85.8168 92.6288 85.8012 89.1964 85.8419C85.8935 85.8803 82.4706 85.77 79.1965 86.2401C79.0418 86.2617 79.043 86.5279 79.1965 86.5519C82.3555 87.0317 85.6632 86.9357 88.8534 86.9657C92.2858 86.9981 95.7218 86.9393 99.1531 86.8889C106.133 86.7858 113.115 86.6767 120.094 86.5196C133.717 86.2125 147.335 85.7484 160.945 85.0768C163.237 85.343 165.528 85.6117 167.815 85.9079C170.216 86.2173 172.617 86.5303 175.018 86.8374C172.678 86.8805 170.227 86.8086 167.898 87.1084C167.715 86.9261 167.461 86.805 167.125 86.8074C143.754 86.9921 120.382 87.13 97.0123 87.4082C91.0193 87.4802 84.7733 87.136 78.7923 87.8568C78.6304 87.8436 78.4685 87.834 78.3054 87.8232C78.255 87.7788 78.1759 87.7752 78.1195 87.8112C75.9704 87.6877 73.7852 87.7848 71.6984 87.9527C71.8495 87.7872 71.9958 87.6157 72.135 87.4394C72.1422 87.431 72.1494 87.4226 72.1553 87.4142C72.2993 87.2307 72.4372 87.0413 72.5667 86.8458C75.7509 86.6455 78.9447 86.0974 82.1024 85.7088C85.4941 85.2903 88.8821 84.8405 92.2726 84.404C99.3198 83.4949 106.396 82.8257 113.427 81.7799C115.202 81.516 117.446 80.914 118.041 78.9639C118.651 76.9622 116.992 74.0719 115.485 72.8414C115.079 72.5092 114.623 72.2477 114.135 72.0379C114.191 71.8915 114.233 71.7404 114.256 71.5905C114.257 71.5797 114.257 71.5701 114.258 71.5593C115.591 72.7143 117.127 73.5994 118.978 73.5046C119.8 73.4626 120.979 73.0609 121.734 72.3881C122.72 72.4996 123.728 72.4924 124.739 72.43C125.073 73.4471 125.432 74.4509 125.786 75.4295C123.816 75.3911 121.828 75.348 119.91 75.5638C119.466 75.6142 119.266 76.3242 119.793 76.4201C122.554 76.9263 125.564 76.7608 128.364 76.726C131.407 76.6876 134.45 76.5293 137.485 76.3146C138.269 76.2594 138.277 75.0349 137.485 75.0865C137.467 75.0877 137.449 75.0889 137.432 75.0901C136.501 73.8752 135.471 72.7131 134.444 71.5617C135.274 71.4622 136.099 71.3435 136.913 71.1876C137.481 71.0784 137.345 70.1753 136.778 70.1885C135.658 70.2125 134.535 70.2953 133.411 70.3996C133.342 70.3204 133.27 70.2413 133.2 70.1621C131.917 68.699 130.613 67.2034 129.215 65.8338C129.329 65.8338 129.444 65.8326 129.558 65.8338C133.12 65.8566 136.681 65.8806 140.243 65.9034C141.615 65.9118 141.617 63.7614 140.243 63.771C136.681 63.7938 133.12 63.8178 129.558 63.8406C126.248 63.8622 122.667 63.6643 119.406 64.2687C118.843 64.3731 118.843 65.3013 119.406 65.4057C122.012 65.889 124.822 65.859 127.537 65.8398C127.661 66.2092 127.765 66.5402 128.036 66.8712C128.148 67.008 128.359 66.894 128.383 66.7513C129.493 68.0681 130.705 69.313 131.894 70.5507C130.774 70.6683 129.655 70.793 128.54 70.8913C127.472 70.9849 126.365 71.0244 125.261 71.0988C124.798 69.7856 124.275 68.4987 123.645 67.3066C123.59 67.2022 123.454 67.2802 123.468 67.3809C123.655 68.639 123.97 69.9103 124.346 71.172C123.684 71.2331 123.027 71.3207 122.383 71.4466C122.482 71.1372 122.495 70.8002 122.378 70.4344C122.134 69.6776 121.271 68.8297 120.81 68.1725C120.284 67.4205 119.757 66.6685 119.224 65.9226C118.391 64.7592 117.577 63.5767 116.728 62.4218C118.398 62.6029 120.249 62.3174 121.87 62.2611C124.132 62.1831 126.394 62.0956 128.657 62.0128C133.197 61.8473 137.737 61.6794 142.278 61.5367C143.487 61.4983 144.696 61.4599 145.905 61.4228C145.238 61.7778 144.619 62.2851 144.054 63.0202ZM125.688 72.3557C126.762 72.2621 127.832 72.1326 128.87 72.0475C130.239 71.9359 131.626 71.8448 133.007 71.7141C134.113 72.8786 135.234 74.0611 136.405 75.1489C133.838 75.3012 131.271 75.4007 128.701 75.4451C128.016 75.4571 127.322 75.4511 126.626 75.4403C126.328 74.4305 126.022 73.3919 125.688 72.3557ZM169.537 59.3336C160.433 59.2604 151.373 59.4487 142.279 59.8756C137.851 60.0831 133.425 60.3122 128.998 60.5401C126.736 60.6564 124.474 60.7739 122.211 60.8903C120.236 60.9922 117.856 60.7919 115.945 61.3856C114.155 59.174 111.845 59.1333 109.127 58.9546C101.752 58.4712 94.3426 58.3753 86.9597 58.7291C82.7057 58.933 78.4577 59.2688 74.2314 59.8025C72.2573 60.0519 70.24 60.2738 68.2444 60.5952C68.8668 53.7436 68.4639 46.7168 68.4555 39.8399C68.4471 32.8599 68.4315 25.8811 68.4147 18.9012C68.4075 15.8921 68.0885 12.7067 68.543 9.72162C68.7109 8.62065 69.0287 7.40575 69.8167 6.57583C71.0376 5.29016 73.1064 5.41129 74.7387 5.29496C81.6995 4.79845 88.6603 4.30553 95.6259 3.86898C109.434 3.00427 123.262 2.35785 137.098 2.33266C143.952 2.31947 150.807 2.45979 157.653 2.80159C160.54 2.94551 163.885 2.74642 166.617 3.84259C169.866 5.14625 169.339 8.7046 169.339 11.6081C169.339 27.2855 169.339 42.9629 169.339 58.6404C169.339 58.9246 169.422 59.1561 169.556 59.3348C169.549 59.3348 169.544 59.3336 169.537 59.3336Z" fill="#212936"/>
<path d="M117.144 16.066C121.727 15.9712 126.367 16.1439 130.935 15.7578C131.218 15.7338 131.213 15.3524 130.935 15.3212C126.389 14.8223 121.705 15.0538 117.144 15.2229C112.547 15.3932 107.955 15.6666 103.37 16.0276C102.98 16.0588 102.973 16.6656 103.37 16.6416C107.957 16.3562 112.549 16.1607 117.144 16.066Z" fill="#212936"/>
<path d="M149.934 23.4441C147.279 22.9848 144.353 23.3686 141.663 23.4166C138.919 23.4657 136.176 23.5149 133.432 23.5641C127.716 23.6672 122.001 23.7991 116.285 23.9215C104.855 24.1673 93.4239 24.316 81.9921 24.5163C81.6491 24.5223 81.6479 25.056 81.9921 25.05C93.4227 24.8497 104.853 24.5967 116.285 24.442C122.001 24.364 127.716 24.2957 133.432 24.1973C136.175 24.1505 138.919 24.1038 141.663 24.057C144.357 24.0114 147.292 24.2945 149.934 23.7404C150.078 23.7104 150.083 23.4705 149.934 23.4441Z" fill="#212936"/>
<path d="M138.517 32.6753C120.945 32.5901 103.352 33.3133 85.7868 33.7246C85.6417 33.7282 85.6405 33.9537 85.7868 33.9513C103.355 33.6371 120.963 33.6323 138.517 32.8204C138.61 32.8168 138.612 32.6765 138.517 32.6753Z" fill="#212936"/>
<path d="M106.119 41.9555C102.148 41.5562 98.3592 41.6941 94.399 42.1474C94.086 42.1834 94.0728 42.6739 94.399 42.6487C98.2788 42.3453 102.228 42.2997 106.119 42.2949C106.341 42.2949 106.332 41.9771 106.119 41.9555Z" fill="#212936"/>
<path d="M143.686 42.8034C138.878 42.4868 134.028 42.5744 129.211 42.5036C124.383 42.4328 119.563 42.3753 114.737 42.4257C114.714 42.4257 114.715 42.4592 114.737 42.4604C119.56 42.6631 124.382 42.7579 129.211 42.8394C134.027 42.921 138.872 43.162 143.686 42.9977C143.811 42.9929 143.809 42.8118 143.686 42.8034Z" fill="#212936"/>
<path d="M55.04 67.4709C54.589 67.1795 53.909 67.2826 53.3885 67.2754C52.5358 67.2634 52.5346 68.6114 53.3885 68.6006C53.909 68.5934 54.5902 68.6978 55.04 68.4051C55.389 68.1797 55.389 67.6964 55.04 67.4709Z" fill="#212936"/>
<path d="M54.4223 72.219C53.2794 72.2309 53.277 73.9843 54.4223 73.9963C55.1047 74.0035 56.7838 74.1594 56.7838 73.1076C56.7838 72.0571 55.1047 72.2118 54.4223 72.219Z" fill="#212936"/>
<path d="M196.939 69.4893C196.302 70.1046 195.84 70.8877 195.658 71.7584C195.519 72.4276 195.389 73.6857 196.095 74.1199C196.82 74.566 197.071 73.6773 197.064 73.1412C197.052 72.111 197.172 71.2463 197.92 70.4704C198.542 69.8275 197.583 68.8681 196.939 69.4893Z" fill="#212936"/>
<path d="M202.729 72.7682C202.371 72.5584 201.807 72.6627 201.613 73.0609C201.197 73.9136 200.903 75.3599 201.859 75.9728C202.244 76.2199 202.663 75.9536 202.81 75.5866C203.024 75.0445 202.76 74.4377 203.022 73.8848C203.21 73.4866 203.133 73.0045 202.729 72.7682Z" fill="#212936"/>
</svg>
