<svg width="62" height="60" viewBox="0 0 62 60" fill="none" xmlns="http://www.w3.org/2000/svg">
<g clip-path="url(#clip0_2830_19179)">
<path d="M59.8749 49.049C57.9564 45.7371 56.568 42.1198 54.9615 38.6478C51.4384 31.0335 47.3604 23.6981 43.3849 16.3149C41.4846 12.7885 39.6437 9.17775 37.4826 5.80314C36.0165 3.51488 34.4778 1.19525 31.7983 0.262448C31.7487 0.245938 31.6992 0.232731 31.6497 0.217872C31.6464 0.145228 31.6414 0.0725852 31.6381 -0.00170898C31.4152 0.00159298 31.1907 0.0230557 30.9678 0.0577264C30.7433 0.0230557 30.5204 0.00159298 30.2959 -0.00170898C30.2926 0.0725852 30.2876 0.145228 30.2843 0.217872C30.2364 0.232731 30.1869 0.244287 30.139 0.262448C27.4644 1.19525 25.929 3.51488 24.4663 5.80314C22.3101 9.17775 20.4725 12.7885 18.5756 16.3149C14.6099 23.6998 10.5402 31.0351 7.02528 38.6494C5.42218 42.1215 4.037 45.7371 2.12351 49.0506C0.837399 51.2729 -0.856509 55.014 1.66124 57.1239C3.64737 58.7881 6.5531 58.9565 9.02132 59.2289C12.9094 59.6565 16.7793 59.9719 20.6938 59.9983C24.1196 60.0214 27.5437 59.9025 30.9662 59.7738C34.3969 59.9025 37.8293 60.0214 41.2617 59.9983C45.1844 59.9719 49.0626 59.6582 52.9589 59.2289C55.4337 58.9565 58.3444 58.7898 60.3355 57.1239C62.8599 55.014 61.1626 51.2729 59.8749 49.049ZM56.7512 55.709C53.8207 56.5081 50.5122 56.6171 47.5024 56.8119C42.9886 57.1041 38.4682 57.0298 33.9495 56.8631C33.8191 56.8135 33.6705 56.7937 33.507 56.8119C33.4129 56.8218 33.3172 56.8301 33.2198 56.835C32.6436 56.8119 32.0657 56.7888 31.4895 56.764C31.4895 56.7492 31.4912 56.7343 31.4912 56.7194C31.3162 56.7277 31.1412 56.7343 30.9678 56.7426C30.7928 56.7343 30.6178 56.7277 30.4428 56.7194C30.4428 56.7343 30.4445 56.7492 30.4445 56.764C25.1167 56.9919 19.7874 57.157 14.4679 56.8102C11.4648 56.6154 8.16281 56.5065 5.23892 55.7074C4.14267 55.4069 2.9457 54.9545 3.25113 53.5215C3.56647 52.0472 4.38866 50.8155 5.11179 49.5162C7.02528 46.0706 8.35102 42.2304 9.99044 38.6445C11.7339 34.834 13.5995 31.0945 15.5559 27.3897C17.5189 23.6717 19.4852 19.9537 21.4862 16.2555C23.304 12.8991 25.0705 9.48153 27.164 6.28853C27.93 5.12129 29.4076 3.24247 30.9678 2.77524C32.5313 3.24082 34.0139 5.11964 34.7799 6.28853C36.8767 9.48153 38.6482 12.8991 40.4692 16.2555C42.4752 19.9537 44.4448 23.6717 46.4128 27.3897C48.3725 31.0945 50.243 34.834 51.9898 38.6445C53.6325 42.2304 54.9615 46.0706 56.88 49.5162C57.6031 50.8155 58.4286 52.0472 58.7439 53.5215C59.051 54.9562 57.8524 55.4086 56.7512 55.709Z" fill="#212936"/>
<path d="M33.4063 37.8174C32.878 34.5204 32.7393 31.3505 32.8301 28.0073C32.9242 24.5914 33.1719 21.1788 33.195 17.7597C33.1966 17.4344 32.9473 17.0217 32.5973 16.9754C30.7136 16.7195 28.8397 16.6106 27.055 15.899C26.53 15.691 26.0149 16.211 26 16.703C25.7523 24.8754 27.3043 32.9735 28.034 41.0897C27.4727 41.3951 26.9278 41.7484 26.5894 42.2933C26.2642 42.8183 26.8915 43.3581 27.3934 43.0973C28.0241 42.7704 28.668 42.455 29.33 42.1925C29.8633 41.9796 30.6227 41.5668 31.1758 41.5321C31.6067 41.5057 32.0178 41.2531 32.1268 40.8074C32.1317 40.7892 32.1367 40.7694 32.14 40.7512C32.2341 40.3649 32.0872 39.9125 31.719 39.7177C31.7041 39.7095 31.6876 39.7012 31.6728 39.693C31.2683 39.48 30.8126 39.5328 30.4775 39.8465C30.0713 40.2295 29.3069 40.4673 28.7406 40.7248C28.7291 33.0824 27.5981 25.4929 27.6526 17.8422C28.9288 18.1922 30.2397 18.3243 31.5605 18.4745C31.5291 21.8029 31.2864 25.1214 31.1346 28.4465C30.9876 31.6659 30.7136 35.2023 31.3558 38.3821C31.6298 39.7408 33.6176 39.1448 33.4063 37.8174Z" fill="#212936"/>
<path d="M36.19 46.9606C36.1025 45.9568 36.1751 44.5534 35.5873 43.6916C35.4685 43.5166 35.2984 43.3928 35.1135 43.3169C35.1086 43.3136 35.1069 43.3086 35.102 43.3036C34.2633 42.5756 32.5198 43.1914 31.5606 43.4324C30.0681 43.8072 28.5888 44.3553 27.2317 45.0851C26.5845 45.4318 26.8355 46.6403 27.6214 46.5445C28.011 48.321 28.0688 50.3715 28.0523 52.1001C28.049 52.4947 28.4617 52.8414 28.853 52.7109C31.0174 51.9878 33.2694 51.5503 35.5527 51.4545C36.043 51.4347 36.5185 51.0418 36.4921 50.5151C36.4293 49.3281 36.2923 48.1427 36.19 46.9606ZM31.9535 44.8605C32.4472 44.7169 33.1307 44.6674 33.763 44.5452C33.7482 45.3178 33.9661 46.1367 34.0651 46.8731C34.1956 47.8372 34.293 48.8163 34.4531 49.7821C32.6866 50.1536 30.953 50.5977 29.2525 51.2119C29.1914 50.5151 29.099 49.8234 28.99 49.13C28.8414 48.1839 28.5327 47.1868 28.4402 46.211C29.5596 45.6332 30.745 45.2122 31.9535 44.8605Z" fill="#212936"/>
<path d="M50.3437 53.3614C49.4951 53.4439 48.6548 53.5579 47.8012 53.6074C46.8601 53.6619 45.8679 53.5612 44.9764 53.9062C44.6726 54.0234 44.6726 54.4065 44.9764 54.5237C45.8663 54.8671 46.8634 54.7713 47.8012 54.7565C48.701 54.7416 49.6173 54.7053 50.5006 54.5187C51.1444 54.3801 51.0058 53.297 50.3437 53.3614Z" fill="#212936"/>
<path d="M48.2074 49.5443C47.3786 49.7143 46.5317 49.7804 45.7293 50.0676C45.1713 50.2674 45.3892 51.1144 45.977 50.9641C46.8041 50.7511 47.6593 50.7858 48.4782 50.5233C49.1023 50.3202 48.8464 49.4138 48.2074 49.5443Z" fill="#212936"/>
</g>
<defs>
<clipPath id="clip0_2830_19179">
<rect width="61.2762" height="60" fill="white" transform="translate(0.361938)"/>
</clipPath>
</defs>
</svg>
