<svg width="160" height="165" viewBox="0 0 160 165" fill="none" xmlns="http://www.w3.org/2000/svg">
<rect width="160" height="164.4" rx="2" fill="black"/>
<path d="M110.851 78.7145C107.453 77.7189 104.09 76.6158 100.739 75.475C98.1742 74.6023 95.5555 73.4769 92.8784 72.8639C92.8451 71.1688 91.899 69.3312 91.3836 67.7394C90.7181 65.6854 90.0777 63.6231 89.4525 61.5565C88.2106 57.4569 87.045 53.335 85.9739 49.1879C85.6446 47.9131 83.6219 47.4872 83.0203 48.7998C81.2018 52.7695 78.051 55.928 75.1572 59.1158C73.6707 60.7536 72.2467 62.4306 70.9686 64.2402C70.3365 65.1367 69.6822 66.1602 69.2126 67.2423C68.1846 66.91 66.9218 66.8905 66.0187 66.776C63.8293 66.4981 61.6287 66.311 59.4268 66.1769C57.204 66.0415 54.977 65.9689 52.7528 66.1267C51.3094 66.2286 49.0908 66.2454 48.1836 67.5844C47.7516 68.2211 48.1378 69.031 48.7629 69.3172C48.7852 71.307 52.3458 75.859 52.7334 76.4077C54.1018 78.3402 55.4799 80.2658 56.8386 82.2053C57.7277 83.4731 58.521 84.8387 59.4323 86.0856C58.7488 87.7668 58.3376 89.5848 57.7027 91.2939C57.0289 93.1077 56.244 94.8796 55.4883 96.6613C54.0573 100.033 52.7862 103.44 52.325 107.095C52.1735 107.685 52.4472 108.407 53.0335 108.564C53.5642 108.801 54.2741 108.732 54.7992 108.362C57.5902 107.83 60.3673 106.832 63.0874 106.098C66.2785 105.235 69.4766 104.387 72.6843 103.593C72.883 103.544 73.0539 103.468 73.1984 103.375C75.9352 105.948 79.3402 107.758 82.4452 109.833C85.6321 111.962 88.0424 114.949 91.7295 116.303C93.0298 116.781 93.9106 115.392 93.7411 114.281C92.7645 107.851 93.3647 101.24 93.366 94.7498C93.448 94.6939 93.53 94.6311 93.6092 94.5557C98.9119 89.508 105.432 86.0842 111.236 81.6886C112.315 80.869 112.307 79.1417 110.851 78.7145ZM91.221 92.1512C91.0654 92.2978 90.9501 92.4528 90.8668 92.612C90.6334 92.8452 90.4778 93.1747 90.4709 93.6034C90.3694 99.6941 89.8026 105.763 90.243 111.834C88.2092 110.429 86.4268 108.526 84.486 107.096C81.4991 104.895 78.0524 103.288 75.385 100.669C74.6418 99.9385 73.7124 100.084 73.0942 100.605C72.758 100.377 72.3231 100.279 71.8161 100.412C68.6152 101.245 65.4339 102.139 62.272 103.111C60.1978 103.748 57.975 104.32 55.8703 105.088C56.5024 102.325 57.6402 99.6606 58.6808 97.0509C59.3907 95.2706 60.1019 93.4903 60.7285 91.6779C61.2828 90.0735 61.8802 88.2527 61.8899 86.531C62.3372 86.2211 62.579 85.6835 62.3108 84.9755C61.8177 83.677 60.791 82.5069 59.9866 81.3954C58.7224 79.65 57.4332 77.9228 56.1495 76.1927C54.9201 74.5339 53.66 72.9002 52.4278 71.2428C51.9693 70.6256 51.4984 70.0252 51.0163 69.4248C50.9371 69.3256 50.8913 69.2405 50.8218 69.1497C51.6081 69.0464 52.4069 69.0296 53.2002 69.0226C55.2743 69.0059 57.3568 69.1134 59.424 69.2614C61.4134 69.4038 63.4042 69.5979 65.3811 69.8646C66.3133 69.9903 67.583 70.3966 68.6958 70.4539C68.9973 70.8741 69.6641 71.0613 70.0253 70.5949C71.2423 69.0254 72.1717 67.2521 73.4179 65.691C74.7946 63.9652 76.3408 62.3636 77.8565 60.762C79.9445 58.5558 82.1132 56.3273 83.8553 53.8153C84.6388 56.6959 85.4612 59.564 86.3198 62.4236C86.9408 64.4916 87.5826 66.5539 88.2439 68.6093C88.6704 69.9386 89.0024 71.4885 89.6304 72.8039C89.2997 73.2577 89.3747 74.0382 89.8985 74.3859C92.7298 76.2653 96.2723 77.1981 99.4565 78.3305C101.903 79.2004 104.356 80.0452 106.825 80.8466C101.515 84.4771 95.9264 87.6998 91.221 92.1512Z" fill="white"/>
</svg>
