<svg width="24" height="20" viewBox="0 0 24 20" fill="none" xmlns="http://www.w3.org/2000/svg">
<g clip-path="url(#clip0_2830_19185)">
<path d="M23.9636 13.2928C23.8928 12.5623 23.7065 11.8516 23.6144 11.1249C23.3516 9.04151 23.5592 6.91988 22.9203 4.88602C22.7471 4.33485 22.4418 4.00311 21.851 3.95639C21.8396 3.95545 21.8278 3.95545 21.816 3.95451C21.875 3.58737 21.8425 3.17636 21.8198 2.81819C21.7939 2.40623 21.7132 1.95557 21.4423 1.62902C20.8921 0.965065 19.8327 1.1307 19.0876 1.25198C18.8563 1.28973 18.6251 1.33173 18.3939 1.37561C18.4005 0.988188 18.3321 0.464859 17.8861 0.388412C17.4307 0.311022 17.0778 0.753185 16.88 1.10191C16.763 1.3086 16.6932 1.52237 16.654 1.74133C16.4167 1.79324 16.1793 1.84562 15.9424 1.89564C14.6966 2.16084 13.4565 2.36281 12.1904 2.47559C12.1597 2.39301 12.1295 2.3109 12.0988 2.23115C11.9006 1.71585 11.6293 1.2298 11.1749 0.898529C10.5756 0.462028 9.81251 0.356795 9.0891 0.338392C7.16094 0.289787 5.26488 1.00046 3.46697 1.61014C2.87616 1.81023 2.28015 1.9919 1.68982 2.19152C1.2033 2.35621 0.675719 2.58413 0.368045 3.01355C-0.358198 4.02812 0.164187 5.48957 0.463839 6.56974C0.872026 8.0411 1.19291 9.54172 1.55344 11.0258C1.73559 11.7738 1.91963 12.5066 2.04751 13.2668C2.11027 13.6411 2.18294 14.0072 2.29526 14.3583C2.30611 14.4286 2.31885 14.4985 2.33348 14.5683C2.49015 15.3139 2.66852 16.093 3.03707 16.7655C3.94499 18.4246 6.14071 18.0122 7.69701 17.8333C9.77334 17.5946 11.8662 17.612 13.9477 17.4181C14.9675 17.3232 15.9754 17.1543 16.9914 17.0335C17.7823 16.9396 18.5812 16.915 19.3749 16.8537C20.2026 16.79 21.037 16.6989 21.8401 16.4823C22.5258 16.2978 23.2284 15.9967 23.6404 15.3937C24.0457 14.801 24.0302 13.9752 23.9636 13.2928ZM20.8298 1.96076C21.1143 2.13158 21.1294 2.62424 21.145 2.91068C21.1634 3.25705 21.0983 3.62701 21.1436 3.97385C21.0077 3.98612 20.8732 3.99981 20.7401 4.01113C20.1748 4.05927 19.6104 4.11401 19.0479 4.18621C18.7856 4.21971 18.5232 4.2669 18.2603 4.32211C18.1782 3.96772 18.0503 3.63032 17.9295 3.40239C17.8413 3.23581 17.6204 3.35945 17.6464 3.52178C17.6738 3.69261 17.788 4.04889 17.8635 4.40988C17.7186 4.44339 17.5737 4.47831 17.4289 4.5137C17.3972 4.31834 17.3652 4.12297 17.3335 3.92761C17.2462 3.38682 17.1372 2.80781 17.142 2.24956C17.62 2.17217 18.0971 2.09336 18.5723 2.00276C19.2324 1.87582 20.2069 1.58702 20.8298 1.96076ZM17.5747 5.46126C17.561 5.365 17.5473 5.26826 17.5327 5.17199C17.6629 5.14037 17.7932 5.11017 17.9239 5.08092C17.8989 5.30176 17.8012 5.45513 17.5747 5.46126ZM17.6271 1.0099C17.9206 0.73195 17.9097 1.218 17.9092 1.47188C17.6851 1.51812 17.4609 1.56626 17.2368 1.61486C17.3203 1.38552 17.4576 1.17081 17.6271 1.0099ZM15.4266 2.53788C15.8221 2.46427 16.2189 2.39868 16.6158 2.33403C16.6219 2.55723 16.6465 2.7828 16.6757 3.00789C16.747 3.55151 16.8602 4.08805 16.9631 4.62601C16.0943 4.83364 15.2213 5.01343 14.3427 4.94312C13.1847 4.85016 12.718 3.879 12.3546 2.91823C13.3838 2.92295 14.422 2.72428 15.4266 2.53788ZM23.0255 14.7703C22.8825 15.0841 22.6239 15.2351 22.3281 15.3842C21.6495 15.7268 20.8331 15.8321 20.087 15.9132C19.2626 16.0033 18.433 16.0331 17.6063 16.0944C16.6894 16.1624 15.7838 16.3294 14.8707 16.4332C13.7703 16.5588 12.6651 16.6366 11.5595 16.6937C10.5425 16.7461 9.52229 16.7437 8.50867 16.848C7.58046 16.9438 6.65649 17.0826 5.72214 17.1014C4.99448 17.1161 4.24795 17.0571 3.7888 16.4219C3.3674 15.8391 3.17817 15.0704 2.95779 14.3956C2.83085 14.0072 2.70722 13.626 2.6119 13.2329C2.56518 12.8709 2.52648 12.508 2.47033 12.1522C2.29573 11.0433 1.98145 9.94896 1.71955 8.85842C1.49728 7.93304 1.2821 7.00813 1.02681 6.09124C0.912137 5.67928 0.807377 5.26495 0.732818 4.84403C0.661562 4.44197 0.595497 3.95309 0.761603 3.56708C1.10231 2.7743 2.04987 2.63698 2.77139 2.38122C3.67696 2.06033 4.57922 1.73944 5.50318 1.47377C6.45924 1.19912 7.437 0.978278 8.43175 0.915517C9.21037 0.86644 10.0867 0.90136 10.7605 1.3388C11.2112 1.63138 11.4179 2.16226 11.5835 2.64831C11.7765 3.21411 11.9497 3.78651 12.2635 4.3004C12.6292 4.89971 13.1455 5.34801 13.8278 5.53535C14.5725 5.73968 15.3856 5.62454 16.1312 5.48957C16.4502 5.432 16.7654 5.35839 17.0806 5.28194C17.1014 5.41266 17.1212 5.54337 17.1377 5.67456C17.1504 5.77318 17.199 5.87841 17.3095 5.90012C18.1013 6.05679 18.3486 5.58773 18.3462 4.9922C18.3566 4.99031 18.3665 4.98795 18.3769 4.98606C19.3688 4.7992 20.4013 4.7185 21.4083 4.66376C21.6089 4.65291 21.8793 4.60855 22.0619 4.71567C22.2389 4.81902 22.2945 5.2423 22.3413 5.41454C22.631 6.4848 22.7112 7.60413 22.7688 8.70741C22.8193 9.67102 22.8014 10.6455 22.9401 11.602C23.0486 12.3481 23.1959 13.0875 23.1916 13.8444C23.1897 14.1545 23.1558 14.4843 23.0255 14.7703Z" fill="#212936"/>
<path d="M3.77182 18.8284C2.67609 18.4773 2.16786 17.2117 1.92436 16.1863C1.88472 16.0197 1.64925 16.0943 1.67379 16.2552C1.8616 17.484 2.38682 18.8228 3.64866 19.2758C3.92896 19.3772 4.05732 18.92 3.77182 18.8284Z" fill="#212936"/>
<path d="M2.19099 19.2527C1.57092 19.0044 1.40387 18.1885 1.22314 17.6199C1.20237 17.5543 1.09195 17.5623 1.09809 17.6369C1.16509 18.4292 1.25806 19.2994 2.08198 19.6467C2.32312 19.7486 2.43401 19.3499 2.19099 19.2527Z" fill="#212936"/>
</g>
<defs>
<clipPath id="clip0_2830_19185">
<rect width="24" height="19.3264" fill="white" transform="translate(0 0.336823)"/>
</clipPath>
</defs>
</svg>
