<svg width="343" height="398" viewBox="0 0 343 398" fill="none" xmlns="http://www.w3.org/2000/svg">
<path d="M343 255.063C343 352.106 253.347 398 156.24 398C59.1336 398 0 270.623 0 173.579C0 76.5356 39.0911 27 136.198 27C233.305 27 343 158.019 343 255.063Z" fill="#F3F4F6"/>
<g clip-path="url(#clip0_263_0)">
<path d="M300.17 43.1715C283.351 11.4009 244.404 1.63662 211.113 0.135967C202.537 -0.251786 193.956 0.196396 185.451 1.34455C181.145 1.9287 176.86 2.64377 172.675 3.83221C168.39 5.05086 164.769 7.29177 160.725 9.02911C159.099 9.72908 157.512 10.4744 155.946 11.2549C146.408 14.4577 137.873 21.13 131.452 28.9808C129.936 30.839 128.516 32.7626 127.172 34.7417C125.807 36.5042 124.498 38.3322 123.254 40.2306C122.846 40.8551 122.705 41.4644 122.75 42.0234C116.738 53.0869 112.976 65.4396 111.073 77.7873C108.192 96.4548 110.992 115.983 121.013 132.204C130.828 148.091 146.857 158.233 164.109 164.427C168.682 166.069 173.445 167.479 178.33 168.637C175.802 173.628 174.75 180.174 172.836 184.681C168.833 184.349 164.794 184.565 160.911 185.391C159.285 185.024 157.532 185.537 156.661 187.37C152.94 195.201 151.409 204.356 148.765 212.615C145.915 221.513 142.914 230.356 139.726 239.138C133.497 256.305 126.492 273.195 120.494 290.442C120.187 291.328 120.097 292.139 120.172 292.869C116.209 305.852 126.583 317.434 139.303 322.122C153.559 327.374 174.785 322.595 175.671 304.608C175.701 304.044 175.606 303.52 175.424 303.047C180.062 297.935 180.732 287.909 181.759 281.62C183.215 272.666 184.061 263.612 184.972 254.593C185.914 245.282 187.394 236.267 189.399 227.123C191.408 217.973 194.112 208.173 193.755 198.706C195.109 196.324 195.014 193.005 192.073 191.102C189.489 189.43 186.679 188.07 183.738 187.023C184.675 184.389 185.33 181.635 186.035 178.956C186.75 176.246 187.631 173.376 188.306 170.626C219.321 175.692 253.761 170.929 278.406 152.503C310.76 128.321 318.727 78.2304 300.17 43.1715ZM157.925 312.715C153.02 314.493 147.672 313.944 142.773 312.479C134.796 310.092 128.542 304.205 128.255 296.596C128.924 296.284 129.534 295.835 130.062 295.256C131.407 295.181 132.757 295.095 134.076 295.156C137.953 295.342 141.765 295.951 145.573 296.656C151.55 297.769 160.906 299.547 164.507 305.111C164.759 305.504 165.046 305.826 165.348 306.103C163.611 309.029 161.395 311.456 157.925 312.715ZM168.314 289.767C167.871 291.51 167.211 293.207 166.697 294.914C161.737 291.555 155.488 289.863 149.772 288.71C145.155 287.778 140.431 287.35 135.728 287.229C135.068 287.214 134.363 287.194 133.653 287.179C138.276 275.375 142.737 263.501 147.018 251.571C147.441 251.37 147.864 251.173 148.297 250.997C150.951 249.924 153.705 249.149 156.515 248.6C163.117 247.316 169.583 249.466 173.234 255.308C173.38 255.539 173.541 255.726 173.707 255.897C172.886 262.982 172.081 270.073 170.938 277.118C170.243 281.373 169.377 285.593 168.314 289.767ZM185.345 199.824C182.847 207.821 181.216 216.23 179.201 224.328C177.273 232.073 175.802 239.747 174.724 247.598C170.983 243.771 165.962 242.084 159.955 242.461C156.309 242.688 152.738 243.73 149.339 245.02C149.687 244.043 150.039 243.066 150.382 242.089C153.459 233.281 156.43 224.418 158.973 215.44C160.871 208.727 163.46 201.309 164.26 194.123C167.307 194.496 170.394 194.677 173.4 195.261C177.806 196.122 181.618 197.482 185.345 199.824ZM296.318 97.9958C293.281 117.932 283.864 134.958 266.687 145.976C250.205 156.546 230.057 160.213 210.75 160.323C174.951 160.53 133.044 146.566 122.519 108.566C117.045 88.7904 120.646 67.1065 129.418 48.8418C133.205 40.9608 138.256 33.382 144.817 27.5053C146.716 26.2413 148.695 25.0378 150.779 23.8745C154.823 21.6185 158.892 19.5891 163.288 18.0985C168.032 16.4921 173.325 16.1396 178.265 15.2684C197.718 11.834 217.1 12.4031 236.443 16.4317C255.448 20.3948 274.145 27.3794 285.738 43.8362C296.711 59.4169 299.138 79.5196 296.318 97.9958Z" fill="#212936"/>
<path d="M288.155 99.159C277.242 64.1807 245.26 42.6125 209.189 41.5399C188.825 40.9306 169.89 48.736 153.846 60.8923C146.967 66.0993 141.076 71.8552 135.869 78.7088C134.695 80.2498 130.047 88.7149 133.97 89.858C132.006 91.5903 130.939 94.4153 132.379 97.4016C137.284 107.574 148.085 113.576 158.112 117.675C169.795 122.449 182.208 125.159 194.722 126.564C226.069 130.084 257.442 118.27 285.546 105.595C287.777 104.583 288.855 101.395 288.155 99.159ZM242.843 70.8631C242.455 70.8883 242.053 70.9689 241.645 71.1451C232.233 75.2241 223.007 79.716 213.641 83.9007C208.394 86.2423 203.086 88.4429 197.733 90.5277C193.296 92.26 188.427 93.3881 184.227 95.6793C183.532 94.2341 182.948 92.7384 182.5 91.2076C202.487 83.0849 222.509 74.9219 242.692 67.2877C242.808 68.4661 242.853 69.6596 242.843 70.8631ZM234.836 57.3522C237.097 58.2183 239.303 59.2104 241.458 60.288C221.411 68.7884 201.243 76.8607 181.488 86.0409C181.231 83.6942 181.241 81.3022 181.508 78.9103C190.476 76.2564 199.39 73.4968 208.197 70.3193C213.047 68.5719 217.836 66.6633 222.554 64.5886C226.291 62.9469 232.48 60.9981 234.836 57.3522ZM194.475 56.7227C198.529 53.9732 202.673 53.0366 207.054 52.4675C207.467 52.4625 207.885 52.4776 208.298 52.4826C203.655 54.4466 198.931 56.2292 194.324 58.2335C193.201 58.7219 191.947 59.2557 190.632 59.8449C191.836 58.6967 193.12 57.6392 194.475 56.7227ZM183.22 71.2761C184.242 70.4754 185.29 69.7049 186.433 69.0351C190.119 66.895 194.052 65.2432 198.015 63.7023C205.423 60.8218 213.047 58.5205 220.092 54.784C220.686 54.4667 221.099 54.0588 221.386 53.6157C223.148 53.9279 224.891 54.3056 226.608 54.7437C224.488 55.9523 222.428 57.4026 220.525 58.3493C215.534 60.8369 210.353 62.9369 205.166 64.9612C197.562 67.9323 189.882 70.6969 182.409 73.9702C182.651 73.0638 182.913 72.1674 183.22 71.2761ZM165.57 107.871C156.968 104.734 146.998 99.9547 142.894 91.2579C141.398 88.0904 138.462 87.5818 135.974 88.6041C135.949 88.5134 135.914 88.4228 135.864 88.3372C136.332 89.1429 145.643 79.5397 146.806 78.447C152.975 72.676 159.924 67.6805 167.211 63.4354C171.98 60.6557 176.945 58.4147 182.052 56.6824C179.584 59.5579 177.54 62.7002 176.094 65.913C169.301 80.9951 172.463 98.444 183.809 110.389C185.008 111.648 186.287 112.826 187.641 113.914C180.128 112.514 172.695 110.469 165.57 107.871ZM191.811 105.293C191.554 105.081 191.297 104.865 191.04 104.643C189.449 103.248 188.064 101.727 186.871 100.111C191.161 99.6777 195.381 98.0058 199.41 96.621C204.858 94.7477 210.161 92.5118 215.449 90.2206C224.397 86.343 233.19 82.1029 242.118 78.175C241.992 78.8398 241.851 79.4994 241.695 80.1642C241.227 80.1994 240.738 80.3454 240.23 80.6476C232.001 85.5625 223.808 90.3364 215.202 94.5715C207.553 98.3281 199.37 101.319 191.811 105.293ZM216.753 100.438C224.06 97.1347 231.488 93.665 238.417 89.5105C238.039 90.3112 237.636 91.0968 237.218 91.8723C225.359 97.6483 213.475 103.983 202.396 111.114C200.674 110.615 198.941 109.915 197.209 108.979C203.861 106.506 210.383 103.314 216.753 100.438ZM208.932 112.051C215.947 108.299 223.204 105.026 230.349 101.541C224.443 107.891 216.939 112.051 208.932 112.051ZM238.437 112.076C237.128 112.428 235.813 112.751 234.494 113.053C247.516 102.382 254.466 84.6611 253.625 67.9827C263.319 75.6068 271.013 85.7236 275.591 97.6332C263.404 103.107 251.439 108.576 238.437 112.076Z" fill="#212936"/>
</g>
<defs>
<clipPath id="clip0_263_0">
<rect width="200" height="324.146" fill="white" transform="translate(110)"/>
</clipPath>
</defs>
</svg>
