<svg width="377" height="238" viewBox="0 0 377 238" fill="none" xmlns="http://www.w3.org/2000/svg">
<rect x="1" y="1" width="375" height="236" stroke="#D5F1DD" stroke-width="2"/>
<rect x="1" y="58" width="50" height="122" stroke="#D5F1DD" stroke-width="2"/>
<rect x="376" y="180" width="50" height="122" transform="rotate(-180 376 180)" stroke="#D5F1DD" stroke-width="2"/>
<rect x="1" y="88" width="22" height="62" stroke="#D5F1DD" stroke-width="2"/>
<rect x="376" y="150" width="22" height="62" transform="rotate(-180 376 150)" stroke="#D5F1DD" stroke-width="2"/>
<circle cx="189.5" cy="119.5" r="39.5" stroke="#D5F1DD" stroke-width="2"/>
<circle r="3" transform="matrix(-1 0 0 1 190 119)" fill="#D5F1DD"/>
<line x1="190" y1="1" x2="190" y2="236" stroke="#D5F1DD" stroke-width="2"/>
<path d="M12 1C12 6.52285 7.52285 11 2 11" stroke="#D5F1DD" stroke-width="2"/>
<path d="M365 237C365 231.477 369.477 227 375 227" stroke="#D5F1DD" stroke-width="2"/>
<path d="M2 227C7.52285 227 12 231.477 12 237" stroke="#D5F1DD" stroke-width="2"/>
<path d="M375 11C369.477 11 365 6.52285 365 1" stroke="#D5F1DD" stroke-width="2"/>
<mask id="path-13-inside-1_263_0" fill="white">
<path d="M50.5 98C52.1415 98 53.767 98.5561 55.2835 99.6366C56.8001 100.717 58.1781 102.301 59.3388 104.297C60.4996 106.294 61.4203 108.664 62.0485 111.272C62.6767 113.881 63 116.677 63 119.5C63 122.323 62.6767 125.119 62.0485 127.728C61.4203 130.336 60.4996 132.706 59.3388 134.703C58.1781 136.699 56.8001 138.283 55.2835 139.363C53.767 140.444 52.1415 141 50.5 141L50.5 119.5L50.5 98Z"/>
</mask>
<path d="M50.5 98C52.1415 98 53.767 98.5561 55.2835 99.6366C56.8001 100.717 58.1781 102.301 59.3388 104.297C60.4996 106.294 61.4203 108.664 62.0485 111.272C62.6767 113.881 63 116.677 63 119.5C63 122.323 62.6767 125.119 62.0485 127.728C61.4203 130.336 60.4996 132.706 59.3388 134.703C58.1781 136.699 56.8001 138.283 55.2835 139.363C53.767 140.444 52.1415 141 50.5 141L50.5 119.5L50.5 98Z" stroke="#D5F1DD" stroke-width="4" mask="url(#path-13-inside-1_263_0)"/>
<mask id="path-14-inside-2_263_0" fill="white">
<path d="M326.5 141C324.858 141 323.233 140.444 321.716 139.363C320.2 138.283 318.822 136.699 317.661 134.703C316.5 132.706 315.58 130.336 314.952 127.728C314.323 125.119 314 122.323 314 119.5C314 116.677 314.323 113.881 314.952 111.272C315.58 108.664 316.5 106.294 317.661 104.297C318.822 102.301 320.2 100.717 321.716 99.6366C323.233 98.5561 324.858 98 326.5 98L326.5 119.5L326.5 141Z"/>
</mask>
<path d="M326.5 141C324.858 141 323.233 140.444 321.716 139.363C320.2 138.283 318.822 136.699 317.661 134.703C316.5 132.706 315.58 130.336 314.952 127.728C314.323 125.119 314 122.323 314 119.5C314 116.677 314.323 113.881 314.952 111.272C315.58 108.664 316.5 106.294 317.661 104.297C318.822 102.301 320.2 100.717 321.716 99.6366C323.233 98.5561 324.858 98 326.5 98L326.5 119.5L326.5 141Z" stroke="#D5F1DD" stroke-width="4" mask="url(#path-14-inside-2_263_0)"/>
</svg>
