<svg width="693" height="494" viewBox="0 0 693 494" fill="none" xmlns="http://www.w3.org/2000/svg">
<path d="M534.5 23.5H600C632.861 23.5 659.5 50.1391 659.5 83V138.5H534.5V23.5Z" fill="#F9FAFB" stroke="#D2D5DA"/>
<path d="M158.5 470.5L93 470.5C60.1391 470.5 33.5 443.861 33.5 411L33.5 355.5L158.5 355.5L158.5 470.5Z" fill="#F9FAFB" stroke="#D2D5DA"/>
<path d="M649.5 355.5L649.5 421C649.5 453.861 622.861 480.5 590 480.5L534.5 480.5L534.5 355.5L649.5 355.5Z" fill="#F9FAFB" stroke="#D2D5DA"/>
<path d="M43.5 138.5L43.5 73C43.5 40.1391 70.1391 13.5 103 13.5L158.5 13.5L158.5 138.5L43.5 138.5Z" fill="#F9FAFB" stroke="#D2D5DA"/>
<path d="M534.5 64.5H575C596.815 64.5 614.5 82.1848 614.5 104V138.5H534.5V64.5Z" fill="white" stroke="#D2D5DA"/>
<path d="M158.5 429.5L118 429.5C96.1848 429.5 78.5 411.815 78.5 390L78.5 355.5L158.5 355.5L158.5 429.5Z" fill="white" stroke="#D2D5DA"/>
<path d="M608.5 355.5L608.5 396C608.5 417.815 590.815 435.5 569 435.5L534.5 435.5L534.5 355.5L608.5 355.5Z" fill="white" stroke="#D2D5DA"/>
<path d="M84.5 138.5L84.5 98C84.5 76.1848 102.185 58.5 124 58.5L158.5 58.5L158.5 138.5L84.5 138.5Z" fill="white" stroke="#D2D5DA"/>
<rect x="118.5" y="98.5" width="456" height="297" rx="19.5" fill="white" stroke="#D2D5DA"/>
<rect x="564.5" y="138.5" width="39" height="217" fill="#F9FAFB" stroke="#D2D5DA"/>
<path d="M603.5 138.5H683C688.247 138.5 692.5 142.753 692.5 148V346C692.5 351.247 688.247 355.5 683 355.5H603.5V138.5Z" fill="white" stroke="#D2D5DA"/>
<rect x="158.5" y="69.5" width="376" height="39" fill="#F9FAFB" stroke="#D2D5DA"/>
<rect x="534.5" y="424.5" width="376" height="39" transform="rotate(-180 534.5 424.5)" fill="#F9FAFB" stroke="#D2D5DA"/>
<path d="M168 0.5H525C530.247 0.5 534.5 4.7533 534.5 10V69.5H158.5V10C158.5 4.75329 162.753 0.5 168 0.5Z" fill="white" stroke="#D2D5DA"/>
<path d="M525 493.5L168 493.5C162.753 493.5 158.5 489.247 158.5 484L158.5 424.5L534.5 424.5L534.5 484C534.5 489.247 530.247 493.5 525 493.5Z" fill="white" stroke="#D2D5DA"/>
<rect x="128.5" y="355.5" width="39" height="217" transform="rotate(-180 128.5 355.5)" fill="#F9FAFB" stroke="#D2D5DA"/>
<path d="M89.5 355.5L10 355.5C4.7533 355.5 0.5 351.247 0.500001 346L0.500018 148C0.500019 142.753 4.75331 138.5 10 138.5L89.5 138.5L89.5 355.5Z" fill="white" stroke="#D2D5DA"/>
<rect x="158" y="129" width="375" height="236" stroke="#D5F1DD" stroke-width="2"/>
<rect x="158" y="186" width="50" height="122" stroke="#D5F1DD" stroke-width="2"/>
<rect x="533" y="308" width="50" height="122" transform="rotate(-180 533 308)" stroke="#D5F1DD" stroke-width="2"/>
<rect x="158" y="216" width="22" height="62" stroke="#D5F1DD" stroke-width="2"/>
<rect x="533" y="278" width="22" height="62" transform="rotate(-180 533 278)" stroke="#D5F1DD" stroke-width="2"/>
<circle cx="346.5" cy="247.5" r="39.5" stroke="#D5F1DD" stroke-width="2"/>
<circle r="3" transform="matrix(-1 0 0 1 347 247)" fill="#D5F1DD"/>
<line x1="347" y1="129" x2="347" y2="364" stroke="#D5F1DD" stroke-width="2"/>
<path d="M169 129C169 134.523 164.523 139 159 139" stroke="#D5F1DD" stroke-width="2"/>
<path d="M522 365C522 359.477 526.477 355 532 355" stroke="#D5F1DD" stroke-width="2"/>
<path d="M159 355C164.523 355 169 359.477 169 365" stroke="#D5F1DD" stroke-width="2"/>
<path d="M532 139C526.477 139 522 134.523 522 129" stroke="#D5F1DD" stroke-width="2"/>
<mask id="path-30-inside-1_263_0" fill="white">
<path d="M207.5 226C209.142 226 210.767 226.556 212.284 227.637C213.8 228.717 215.178 230.301 216.339 232.297C217.5 234.294 218.42 236.664 219.048 239.272C219.677 241.881 220 244.677 220 247.5C220 250.323 219.677 253.119 219.048 255.728C218.42 258.336 217.5 260.706 216.339 262.703C215.178 264.699 213.8 266.283 212.284 267.363C210.767 268.444 209.142 269 207.5 269L207.5 247.5L207.5 226Z"/>
</mask>
<path d="M207.5 226C209.142 226 210.767 226.556 212.284 227.637C213.8 228.717 215.178 230.301 216.339 232.297C217.5 234.294 218.42 236.664 219.048 239.272C219.677 241.881 220 244.677 220 247.5C220 250.323 219.677 253.119 219.048 255.728C218.42 258.336 217.5 260.706 216.339 262.703C215.178 264.699 213.8 266.283 212.284 267.363C210.767 268.444 209.142 269 207.5 269L207.5 247.5L207.5 226Z" stroke="#D5F1DD" stroke-width="4" mask="url(#path-30-inside-1_263_0)"/>
<mask id="path-31-inside-2_263_0" fill="white">
<path d="M483.5 269C481.858 269 480.233 268.444 478.716 267.363C477.2 266.283 475.822 264.699 474.661 262.703C473.5 260.706 472.58 258.336 471.952 255.728C471.323 253.119 471 250.323 471 247.5C471 244.677 471.323 241.881 471.952 239.272C472.58 236.664 473.5 234.294 474.661 232.297C475.822 230.301 477.2 228.717 478.716 227.637C480.233 226.556 481.858 226 483.5 226L483.5 247.5L483.5 269Z"/>
</mask>
<path d="M483.5 269C481.858 269 480.233 268.444 478.716 267.363C477.2 266.283 475.822 264.699 474.661 262.703C473.5 260.706 472.58 258.336 471.952 255.728C471.323 253.119 471 250.323 471 247.5C471 244.677 471.323 241.881 471.952 239.272C472.58 236.664 473.5 234.294 474.661 232.297C475.822 230.301 477.2 228.717 478.716 227.637C480.233 226.556 481.858 226 483.5 226L483.5 247.5L483.5 269Z" stroke="#D5F1DD" stroke-width="4" mask="url(#path-31-inside-2_263_0)"/>
</svg>
